HIERARCHY
ROOT Hips
{
	OFFSET -0.001795 -0.223333 0.028219
	CHANNELS 6 Xposition Yposition Zposition Zrotation Yrotation Xrotation 
	JOINT LeftUpLeg
	{
		OFFSET 0.069520 -0.091406 -0.006815
		CHANNELS 3 Zrotation Yrotation Xrotation
		JOINT LeftLeg
		{
			OFFSET 0.034277 -0.375199 -0.004496
			CHANNELS 3 Zrotation Yrotation Xrotation
			JOINT LeftFoot
			{
				OFFSET -0.013596 -0.397961 -0.043693
				CHANNELS 3 Zrotation Yrotation Xrotation
				JOINT LeftToe
				{
					OFFSET 0.026358 -0.055791 0.119288
					CHANNELS 3 Zrotation Yrotation Xrotation
					End Site
					{
						OFFSET 0.000000 0.000000 0.000000
					}
				}
			}
		}
	}
	JOINT RightUpLeg
	{
		OFFSET -0.067670 -0.090522 -0.004320
		CHANNELS 3 Zrotation Yrotation Xrotation
		JOINT RightLeg
		{
			OFFSET -0.038290 -0.382569 -0.008850
			CHANNELS 3 Zrotation Yrotation Xrotation
			JOINT RightFoot
			{
				OFFSET 0.015774 -0.398415 -0.042312
				CHANNELS 3 Zrotation Yrotation Xrotation
				JOINT RightToe
				{
					OFFSET -0.025372 -0.048144 0.123348
					CHANNELS 3 Zrotation Yrotation Xrotation
					End Site
					{
						OFFSET 0.000000 0.000000 0.000000
					}
				}
			}
		}
	}
	JOINT Spine
	{
		OFFSET -0.002533 0.108963 -0.026696
		CHANNELS 3 Zrotation Yrotation Xrotation
		JOINT Spine1
		{
			OFFSET 0.005487 0.135180 0.001092
			CHANNELS 3 Zrotation Yrotation Xrotation
			JOINT Spine2
			{
				OFFSET 0.001457 0.052922 0.025425
				CHANNELS 3 Zrotation Yrotation Xrotation
				JOINT Neck
				{
					OFFSET -0.002778 0.213870 -0.042857
					CHANNELS 3 Zrotation Yrotation Xrotation
					JOINT Head
					{
						OFFSET 0.005152 0.064970 0.051349
						CHANNELS 3 Zrotation Yrotation Xrotation
						End Site
						{
							OFFSET 0.000000 0.000000 0.000000
						}
					}
				}
				JOINT LeftShoulder
				{
					OFFSET 0.078845 0.121749 -0.034090
					CHANNELS 3 Zrotation Yrotation Xrotation
					JOINT LeftArm
					{
						OFFSET 0.090977 0.030469 -0.008868
						CHANNELS 3 Zrotation Yrotation Xrotation
						JOINT LeftForeArm
						{
							OFFSET 0.259612 -0.012772 -0.027456
							CHANNELS 3 Zrotation Yrotation Xrotation
							JOINT LeftHand
							{
								OFFSET 0.249234 0.008986 -0.001171
								CHANNELS 3 Zrotation Yrotation Xrotation
								End Site
								{
									OFFSET 0.000000 0.000000 0.000000
								}
							}
						}
					}
				}
				JOINT RightShoulder
				{
					OFFSET -0.081759 0.118833 -0.038615
					CHANNELS 3 Zrotation Yrotation Xrotation
					JOINT RightArm
					{
						OFFSET -0.096012 0.032551 -0.009143
						CHANNELS 3 Zrotation Yrotation Xrotation
						JOINT RightForeArm
						{
							OFFSET -0.253742 -0.013329 -0.021401
							CHANNELS 3 Zrotation Yrotation Xrotation
							JOINT RightHand
							{
								OFFSET -0.255298 0.007772 -0.005559
								CHANNELS 3 Zrotation Yrotation Xrotation
								End Site
								{
									OFFSET 0.000000 0.000000 0.000000
								}
							}
						}
					}
				}
			}
		}
	}
}
MOTION
Frames: 8
Frame Time: 0.050000
0.000000 0.945038 0.000000 0.382010 -14.402978 6.852961 4.169431 -0.546616 -16.367812 1.852162 -0.493417 9.512342 5.064352 11.379147 16.381742 0.000000 0.000000 0.000000 -4.743402 0.537593 -3.993977 7.992985 -0.610742 6.447612 -12.777759 -27.698346 16.300732 0.000000 0.000000 0.000000 -4.520560 0.386521 13.717308 5.568511 -1.178546 -20.861412 7.830923 17.998013 27.977875 3.094369 1.705520 -29.175657 0.000000 0.000000 0.000000 -25.143769 -4.938750 -1.718867 -62.335067 -9.065227 -4.657541 -14.711498 -37.048501 6.404541 0.000000 0.000000 0.000000 5.956178 27.243809 11.796566 36.379678 48.813555 10.146784 -23.613156 19.544943 -2.666711 0.000000 0.000000 0.000000 
-0.001689 0.943537 -0.000668 0.305993 -15.332773 7.376870 4.925617 -0.394611 -16.899437 0.882241 -0.269093 9.769013 5.568167 12.011772 16.302172 0.000000 0.000000 0.000000 -4.849828 0.609958 -4.919611 9.279485 -0.687684 5.278079 -16.042621 -31.742561 19.483347 0.000000 0.000000 0.000000 -4.201490 0.348223 13.524868 5.017110 -1.218466 -18.949079 8.430379 20.351703 26.686643 3.396693 2.006183 -31.387426 0.000000 0.000000 0.000000 -26.087514 -4.472135 -2.923933 -60.293093 -8.945962 -4.167942 -16.313315 -33.922928 6.039339 0.000000 0.000000 0.000000 4.837112 28.132418 12.030057 33.753637 51.074167 10.301065 -24.133592 16.442556 -2.231390 0.000000 0.000000 0.000000 
-0.002721 0.942994 -0.001047 1.287855 -12.168091 7.552921 3.326456 -0.794234 -18.119033 2.083350 -0.585463 10.060232 3.998008 10.041617 15.928102 0.000000 0.000000 0.000000 -5.354201 0.644544 -5.638678 8.979078 -0.769996 5.895714 -18.188408 -33.940843 22.518687 0.000000 0.000000 0.000000 -3.444595 0.186389 13.945607 3.367621 -0.640923 -20.085899 8.036541 18.314778 25.830127 5.405602 0.820448 -30.420108 0.000000 0.000000 0.000000 -25.037409 -4.347086 -2.755140 -60.828440 -8.968016 -4.232486 -12.526893 -30.574353 4.378497 0.000000 0.000000 0.000000 6.873462 28.679477 13.024938 29.803669 51.677915 8.651736 -24.476737 15.254360 -2.073903 0.000000 0.000000 0.000000 
-0.003179 0.940788 -0.001021 1.152384 -12.261645 7.621926 4.088141 -0.669023 -18.411821 1.083202 -0.372881 10.552630 4.139358 10.190859 15.271156 0.000000 0.000000 0.000000 -5.365058 0.688015 -6.345283 9.929635 -0.913968 7.478534 -18.648619 -34.852842 20.747132 0.000000 0.000000 0.000000 -3.564096 0.202556 13.698111 3.847952 -0.757457 -20.156639 9.280463 19.200985 26.659803 5.154405 1.243242 -32.224246 0.000000 0.000000 0.000000 -25.424769 -4.824502 -2.842375 -60.374921 -7.443020 -4.924892 -14.272430 -30.847234 4.830521 0.000000 0.000000 0.000000 4.802744 29.161737 12.532686 26.035846 53.952084 7.981170 -23.514205 11.187962 -1.330128 0.000000 0.000000 0.000000 
-0.003054 0.940421 -0.000529 1.328507 -10.875546 7.678475 4.014465 -0.742986 -18.632017 0.888350 -0.353980 10.377831 3.477672 9.328237 14.930315 0.000000 0.000000 0.000000 -5.533622 0.707706 -6.868706 10.337886 -1.039775 8.109391 -20.416727 -36.528297 22.989343 0.000000 0.000000 0.000000 -2.377304 -0.017765 13.215506 2.919711 -0.581742 -18.724344 9.399421 19.118038 25.295699 6.339534 0.732958 -31.966074 0.000000 0.000000 0.000000 -24.718713 -5.835419 -2.403243 -61.152007 -7.249284 -4.950584 -10.890037 -29.681694 3.662370 0.000000 0.000000 0.000000 5.290855 29.745948 13.110700 23.996215 56.378444 7.815376 -24.034451 5.219856 -0.274746 0.000000 0.000000 0.000000 
-0.001825 0.940235 0.000350 1.351206 -11.083095 7.888631 4.134223 -0.721730 -18.879089 0.489869 -0.264492 10.529060 3.604499 9.493621 14.861795 0.000000 0.000000 0.000000 -5.695454 0.751330 -7.496883 10.606419 -1.085043 8.654075 -21.072764 -37.190422 23.522946 0.000000 0.000000 0.000000 -1.926638 -0.084457 12.847869 2.997009 -0.567234 -19.366525 10.221914 20.449164 25.756487 5.735346 1.255781 -32.264143 0.000000 0.000000 0.000000 -25.569856 -6.783362 -2.435542 -60.061623 -6.303263 -5.157152 -9.197250 -28.880222 3.048839 0.000000 0.000000 0.000000 5.301090 30.576861 13.596541 19.351149 57.533640 6.021921 -23.604216 0.251080 0.602908 0.000000 0.000000 0.000000 
0.000155 0.939195 0.001541 1.723828 -11.279200 7.485504 3.992698 -0.734475 -18.676907 -0.215283 -0.104192 10.951048 3.753085 9.664871 14.503381 0.000000 0.000000 0.000000 -6.359756 0.790040 -8.149826 10.824267 -1.138903 9.578938 -23.135076 -38.748600 26.521837 0.000000 0.000000 0.000000 -1.061220 -0.210214 12.626069 2.331788 -0.395036 -19.419677 10.418185 21.404556 25.393453 5.943912 1.273217 -32.216244 0.000000 0.000000 0.000000 -23.944548 -6.946075 -2.314723 -61.326137 -5.397249 -5.822840 -7.931846 -29.073595 2.661910 0.000000 0.000000 0.000000 3.310530 31.734874 13.374176 16.719662 60.351711 5.667207 -20.327887 -7.233708 1.669915 0.000000 0.000000 0.000000 
0.002245 0.937632 0.002678 1.703559 -12.227384 7.363966 4.302330 -0.642987 -18.484579 -0.982980 0.095418 11.217825 4.300196 10.360962 14.039872 0.000000 0.000000 0.000000 -6.563760 0.821708 -8.488111 11.040526 -1.148817 10.256193 -23.327223 -39.138225 25.821724 0.000000 0.000000 0.000000 0.199363 -0.365582 11.517408 1.310858 -0.136849 -19.684773 10.930624 22.476778 25.281114 5.953597 1.324648 -32.058898 0.000000 0.000000 0.000000 -23.164867 -7.871419 -1.772053 -62.189492 -3.339849 -7.031843 -6.569550 -29.682012 2.315163 0.000000 0.000000 0.000000 3.879734 32.633977 14.021759 11.761162 61.481155 3.288466 -16.846820 -12.646528 2.075145 0.000000 0.000000 0.000000 
